Patient4_TMGait_0pt2_03_left_17_EMG.mot
version=1
nRows=36
nColumns=33
inDegrees=no
endheader
time	1LAddLong	2LGlutMax	3LGlutMed	4LIliopsoas	5LSemiMemb	6LBicFemLong	7LRecFem	8LVastMed	9LVastLat	10LGasMed	11LTibAnt	12lTibPost	13LPeroneusLong	14LSol	15LExtDigLong	16LFlexDigLong	17RAddLong	18RGlutMax	19RGlutMed	20RIliopsoas	21RSemiMemb	22RBicFemLong	23RRecFem	24RVastMed	25RVastLat	26RGasMed	27RTibAnt	28RTibPost	29RPeroneusLong	30RSol	31RExtDigLong	32RFlexDigLong
37.648	0.007629	-0.02533	0.014496	0.020599	0.006409	-0.014801	0.016022	0.002747	-0.018158	-0.010376	0.056305	-0.005341	-0.002899	-0.067444	-0.005188	-0.010376	0.01297	0.23086	-0.13641	0.056763	0.13992	0.007477	0.31662	0.44968	0.066681	-0.006409	0.0177	-0.003204	-0.016937	0.15274	0.009155	-0.006561
37.649	0.00351	-0.036469	0.018921	0.001678	0.009155	-0.013428	0.018005	0.006409	-0.027008	-0.014954	0.033264	0.008087	-0.000763	-0.037994	0.03067	-0.000916	-0.051117	0.22705	0.005646	-0.096436	0.35019	-0.15045	0.25543	1.026	-0.018311	-0.001526	0.032349	0.002441	-0.076447	0.072937	0.005646	-0.010376
37.65	0.001068	-0.06424	0.007172	-0.001068	0.006256	0.002594	0.034027	0.000916	-0.029907	-0.024719	-0.013275	0.005798	-0.016327	-0.048523	0.026703	-0.005493	0.021515	0.21912	-0.16525	-0.054016	0.27924	-0.31357	0.12192	0.86029	-0.051727	0.000305	0.039368	-0.000763	-0.32761	0.010681	0.00351	-0.009918
37.651	0.005341	-0.053253	0.008392	-0.00473	0.005798	0.001984	0.024261	0.009155	-0.026398	-0.029755	-0.005035	-0.004883	-0.00824	-0.046692	-0.006256	-0.006256	0.027924	0.24933	0.3392	-0.10788	0.19302	-0.28641	0.000458	0.29541	-0.021515	-0.00946	0.034485	-0.021515	-0.45227	0.051727	0.005341	-0.003815
37.652	0.005951	-0.033569	-0.014191	-0.014496	0.007477	0.002747	0.033112	0.001831	-0.028839	-0.03067	0.01358	0.001221	0.011139	-0.052032	-0.010376	-0.001984	0.026093	0.19989	-0.059967	0.045319	-0.14511	-0.17471	0.039368	-0.30838	-0.077362	-0.002594	0.0383	-0.1648	-0.55801	-0.21103	0.004883	-0.00412
37.653	-0.000153	-0.029297	-0.007324	-0.003052	-0.001526	-0.002289	0.014038	0.006409	-0.019531	-0.014801	0.065765	-0.001068	-0.022583	-0.071259	0.00824	-0.010834	-0.041504	0.16937	-0.72083	0.074768	-0.53268	-0.092468	-0.027008	-0.61493	-0.057678	-0.002136	0.032959	-0.11688	-0.72952	-0.38116	0.010376	-0.009918
37.654	0.001984	-0.06958	0.009613	0.002747	0.008087	0.019073	0.007324	0.005341	-0.028076	-0.019989	0.087585	0.001068	-0.012665	-0.051117	0.009308	-0.000305	-0.053406	0.14145	-1.4752	0.039063	-0.002747	-0.16037	-0.15854	-0.849	0.039673	-0.013123	0	0.11841	-0.5368	-0.3421	0.002441	-0.003662
37.655	0.000763	-0.058594	0	0.019226	0.002594	0.020599	0.025482	0.005188	-0.019989	-0.032501	0.023956	-0.000458	0.019226	-0.043488	-0.005341	0.004272	0.015869	0.1358	-1.1894	-0.063477	0.088806	-0.24231	-0.13611	-0.75607	0.19287	-0.007019	0.007477	-0.077515	-0.1088	-0.2681	0.011902	-0.007019
37.656	-0.000153	-0.052032	-0.005035	0.015106	0	0.000305	0.024567	0.007172	-0.017548	-0.032654	-0.10269	-0.007477	0.032196	-0.027771	-0.02182	-0.002136	0.018921	0.12695	0.20386	-0.10574	0.24368	-0.20279	-0.11673	-0.39749	0.21668	0.007172	0.052032	0.14496	0.13825	-0.31982	0.005646	-0.000763
37.657	0.001984	-0.053406	-0.025787	0.010071	0.006714	-0.002136	0.025635	0.016937	-0.023956	-0.021362	-0.11643	-0.007324	0.036621	-0.028992	-0.012817	0.009766	-0.016479	0.073242	0.049896	-0.085907	0.061493	-0.16296	-0.054016	-0.1535	0.28519	0.034027	0.046082	0.15213	-0.17685	-0.024414	0.005188	-0.00473
37.658	-0.002136	-0.053101	-0.018311	-0.008392	0.004425	0.000763	0.037842	0.003967	-0.010986	0.01236	-0.056	-0.000153	0.002136	-0.017548	-0.003815	0.006866	-0.001984	0.080872	0.38483	0.12741	-0.1181	-0.084534	0.092468	-0.062256	0.44113	0.020905	0.035706	0.062866	-1.1856	0.103	0.005341	-0.001526
37.659	0.00946	-0.09491	0.015564	-0.021057	0.002289	-0.000153	0.026245	0.005188	-0.020599	0.000458	0.00885	-0.000153	0.017395	-0.021515	-0.11078	0.006409	0.059814	0.12421	-0.10757	0.29465	-0.018616	-0.25177	0.094452	-0.25711	0.50049	0.006104	0.054932	0.014343	-0.65033	0.24551	0.006714	-0.001068
37.66	0.005646	-0.085449	0.012817	0.001373	0.001526	-0.003815	0.024261	0.000305	-0.020447	-0.013123	0.082397	0.000916	0.037537	-0.065155	0.29312	0.017853	0.11627	0.20493	0.014801	0.15854	0.18005	-0.31189	0.09491	-0.3717	0.47333	0.018463	0.022278	-0.039825	0.20493	-0.063324	0.000153	0
37.661	-0.002136	-0.076599	-0.052948	0.033875	0.003662	0.012665	0.021362	0.001984	-0.02594	-0.007782	0.082397	-0.001068	0.036163	-0.060272	0.16327	0.011444	0.12039	0.27649	-0.072937	0.043793	0.086212	-0.34668	0.16403	-0.27725	0.30899	-0.004425	-0.008392	-0.099182	0.18005	-0.26169	0.000305	-0.00412
37.662	-0.001678	-0.036163	-0.044098	0.035248	-0.002441	-0.004425	0.02533	-0.000763	-0.029755	-0.020905	-0.000458	-0.011749	0.031281	-0.035248	-0.021667	-0.005188	0.059967	0.24048	-0.34607	0.044708	-0.42893	-0.18829	0.15595	-0.31281	0.159	-0.02182	-0.063934	-0.42587	0.54047	-0.42221	0.003204	-0.000153
37.663	0.00351	-0.062561	-0.037842	0.028992	0.010834	-0.006561	0.020905	0.002441	-0.026093	-0.009155	0.019226	-0.006561	0.015106	-0.039368	-0.16602	-0.002747	0.030212	0.1326	-0.018768	0.026245	-0.45731	-0.049591	0.16342	-0.25925	-0.029144	-0.017395	-0.019531	0.045471	0.15686	-0.92224	0.00351	-0.00885
37.664	0.005341	-0.061188	-0.050507	0.037384	0.001984	-0.001221	0.022736	0.003052	-0.019684	-0.018311	0.028534	-0.002899	0.004578	-0.033875	-0.066681	0.003815	0.005493	0.11017	0.67688	-0.04837	0.082245	0.20309	0.13947	0.028381	-0.40726	-0.018311	-0.023499	0.4039	0.49072	-0.79147	0.001221	-0.020142
37.665	0.004883	-0.049896	-0.036926	0.006561	-0.000153	-0.002899	0.016174	0.001373	-0.030365	-0.020905	0.014954	-0.007629	0.006256	-0.04364	-0.02533	0.003967	-0.0177	0.063477	0.75134	-0.08728	0.027618	0.47089	0.15808	0.007324	-0.63294	-0.023804	-0.079651	0.064087	0.9639	-0.3508	0.001526	-0.015259
37.666	0.010071	-0.046692	-0.071869	-0.022888	0.006256	-0.008698	0.024109	0.001831	-0.024109	-0.021515	0.008698	-0.002594	-0.002136	-0.050964	-0.014648	0.004883	-0.027924	-0.046997	0.23285	-0.041962	0.020599	0.42725	0.24307	-0.1355	-0.55786	-0.004425	-0.006561	0.019073	0.28717	0.71182	0.006561	-0.015259
37.667	0.003052	-0.037842	-0.090332	-0.007935	0.002289	-0.001678	0.029297	0.001678	-0.015106	-0.027466	0.023041	-0.006104	-0.011139	-0.062561	0.019836	0.00946	0.006409	-0.10193	0.072632	-0.049286	-0.05249	0.25742	0.26154	-0.15137	-0.34683	-0.044556	-0.014801	0.070953	0.33005	1.1774	0.006104	-0.006256
37.668	0.004425	-0.034027	-0.049286	0.00061	0.001984	0.009003	0.025635	-0.00061	-0.023041	-0.018616	0.011139	-0.003052	-0.011444	-0.054016	0.045166	0.009766	-0.04837	-0.099792	0.23468	-0.069122	-0.34561	0.43533	0.18967	-0.018005	-0.28519	-0.020142	0.000305	0.070343	0.25131	0.90241	-0.003662	-0.014648
37.669	0.002289	-0.022278	0.035095	0.005341	0.007172	0.00946	0.019836	0.009155	-0.020142	-0.025482	0.021057	-0.007782	0.002747	-0.048523	0.005188	-0.000916	-0.081329	-0.23422	0.50171	-0.076904	0.043182	0.50217	0.13306	0.005035	-0.2887	0.007782	0.013428	-0.064392	0.38696	0.58319	0.002899	-0.000916
37.67	-0.006256	-0.004578	0.032501	0.008392	0.007172	0.016937	0.011292	0.00412	-0.021973	-0.000916	0.021057	-0.003204	-0.015106	-0.026855	0.029144	0.00824	-0.071411	-0.40665	0.11459	-0.06485	0.17303	0.22766	0.11002	0.008698	0.1413	0.016174	0.013733	-0.13092	0.47867	0.072021	0.000916	-0.006561
37.671	0.006409	-0.062714	0.00351	0.005798	0.004578	0.000153	0.031433	0.005341	-0.022583	-0.007935	0.012512	-0.003357	-0.034027	-0.061798	0.055084	-0.000916	-0.036621	-0.45776	-0.060577	-0.064087	0.41931	0.030212	0.11627	0.089874	0.40543	0.057526	-0.03006	-0.11734	0.51849	-0.032043	-0.002441	-0.002594
37.672	0.006866	-0.067291	0.054932	-0.002289	0.007324	0.000305	0.014801	0.006104	-0.025635	-0.007324	0.002136	-0.000153	-0.016174	-0.039368	0.073853	0.001221	-0.010376	-0.41153	0.25635	-0.056915	0.31693	-0.085907	0.052032	0.048828	0.73929	0.064697	-0.048065	0.11185	0.025482	0.035858	0.001068	0.005188
37.673	0.00061	-0.053711	0.046997	-0.004578	0.006409	-0.000916	0.018616	0.007324	-0.02655	-0.013428	0.002289	-0.004883	-0.016632	-0.036011	0.043945	0.010071	-0.011139	-0.35385	-0.077362	-0.014801	0.15289	-0.088959	-0.1442	0.18143	0.81924	0.036621	-0.013428	0.019684	-0.1619	0.06958	-0.004272	-0.002441
37.674	0.007477	-0.065155	0.002441	0.010071	0.001526	0.009155	-0.000153	0.007477	-0.027008	-0.006256	0.015259	-0.002747	-0.015106	-0.041046	0.0383	0.000763	-0.007324	-0.30167	-0.63782	0.048828	0.030823	-0.010681	-0.3215	0.21683	0.55359	-0.015869	-0.026245	-0.065613	-0.14404	-0.058441	0.000305	0.001831
37.675	0.006104	-0.070953	0.07782	-0.018616	0.002441	-0.010376	0.015259	0.005951	-0.021973	-0.017548	0.02533	-0.00824	-0.013885	-0.10071	0.003662	0.001984	0.009918	-0.33402	-0.6456	0.121	-0.12024	-0.066223	-0.13489	0.040894	-0.046234	-0.039215	0.014038	0.013885	-0.20371	0.07843	-0.001221	-0.002899
37.676	0.015869	-0.089264	0.06485	-0.001678	0.005035	-0.003052	0.033264	0.007324	-0.03418	-0.022888	0.014038	-0.001068	-0.039673	-0.094604	0.001068	0.006409	-0.050964	-0.29617	-0.21774	0.10101	-0.089417	-0.038757	0.023499	0.21316	-0.50232	-0.029297	0.056763	-0.11566	-0.059967	0.26337	0.001068	-0.010376
37.677	0.007019	-0.076599	0.015717	0.000305	0.002594	0.000305	0.023041	0.003357	-0.028687	-0.029602	0.024261	-0.003815	-0.029755	-0.090332	0.014954	-0.009003	-0.035095	-0.20981	-0.11978	-0.01358	-0.11078	0.11017	0.19882	0.23819	-0.8081	-0.024872	0.0737	0.008545	-0.17731	-0.097504	0.001984	-0.004883
37.678	0.024719	-0.048065	-0.032654	-0.002136	0.004425	0.014191	0.010986	-0.002136	-0.037537	-0.023651	0.022125	-0.001831	-0.028076	-0.036926	0.031738	-0.002594	0.040741	-0.18219	0.18845	-0.074463	-0.15823	0.17731	0.30624	0.29327	-0.88318	-0.021057	0.07431	0.14496	-0.66147	-0.3157	0.005493	-0.006256
37.679	0.076141	-0.051422	-0.071564	0.009003	0.00473	-0.003967	-0.011444	0.003357	-0.031586	-0.018158	0.027008	0.000916	-0.022125	-0.06073	0.021667	0.000458	0.11154	-0.11734	1.1324	-0.095825	-0.24811	0.17593	0.27451	0.074005	-0.44174	-0.007324	0.12787	0.11063	-0.73349	-0.28549	-0.004883	-0.007477
37.68	0.040436	-0.050964	-0.1593	-0.006714	-0.002899	0.000458	-0.034637	-0.005341	-0.024567	-0.007782	0.009766	-0.006256	0.010071	-0.062408	0.033417	0.006866	0.073853	-0.14358	1.0114	-0.06897	-0.27359	0.26825	0.082092	-0.16998	0.024414	-0.007782	0.12039	-0.016937	1.339	0.081635	-0.001526	-0.005798
37.681	0.022888	-0.039673	-0.1207	-0.007935	0.001068	0.001984	-0.016022	0.003204	-0.013733	0.008392	0.004578	-0.006256	0.01297	-0.049896	0.02655	0.002136	-0.026855	-0.091553	0.69046	-0.028839	-0.3949	0.30899	-0.12054	-0.13214	0.26337	-0.015106	-0.007477	0.006104	1.8993	0.48096	-0.000458	-0.000153
37.682	0.014801	-0.061951	-0.085297	-0.015564	0.005798	0.015411	0.007019	0.002441	-0.02243	0.019226	0.011597	0.002747	-0.007477	-0.032349	0.013275	0.006104	-0.084991	-0.14603	0.049591	0.011749	-0.21683	0.24735	-0.16449	-0.20294	0.39887	-0.02121	-0.009766	-0.052185	0.24536	0.63156	-0.006409	-0.000153
37.683	-0.002136	-0.055389	0.10925	0.01358	0.003204	0.014801	0.003815	-0.002899	-0.031433	0.015106	0.021362	0.001526	-0.03952	-0.050049	0.024414	0.007477	-0.065918	-0.20416	-0.14496	0.016174	0.65643	-0.097351	-0.10773	-0.13153	0.4306	-0.009003	0.000763	0.01236	-1.6475	-0.015106	-0.001068	-0.015564
